<svg id="Capa_1" data-name="Capa 1" xmlns="http://www.w3.org/2000/svg" viewBox="0 0 500 500"><defs><style>.cls-1{fill:#47b5ff;stroke:#fff;stroke-miterlimit:10;stroke-width:5px;}</style></defs><path d="M430.57,333.73c-8.7,20.27-20.87,42.17-35.36,56.41-13.34,13.69-22,17-51.6,17-3.47,0-45.21-.55-45.79-.55-33-.55-37.68-8.21-37.68-41.62V142.06c0-47.1,6.38-49.29,52.75-53.67V73.05H157.54V88.39c32.94,3.11,45.4,5.41,49.86,23.16h14a3.22,3.22,0,1,1,0,6.44H208.6c.23,1.77.43,3.65.58,5.68h12.23a3.22,3.22,0,1,1,0,6.43H209.53c.06,1.8.1,3.71.13,5.68h11.75a3.22,3.22,0,1,1,0,6.43h-11.7v5.68h11.7a3.22,3.22,0,1,1,0,6.44h-11.7v4.92h11.7a3.22,3.22,0,1,1,0,6.43h-11.7V359.47c0,46.55-4.64,49.29-57.39,54.22V429H421.87c5.8-17,23.19-73.93,26.67-90.9Z"/><path class="cls-1" d="M350.22,249.84c-12-.18-21,1.8-35.91,5.11a258.46,258.46,0,0,0-33.1,9.53c-42.76,16.31-36.8,55.92-80,75.56-19.53,8.88-39.26,9.2-52.72,9.42-62.18,1-101.23-33.3-105.82-37.47a97.17,97.17,0,0,1-15.32-17.56C47.6,304.8,80.56,318,120.15,318.31c15.85.13,24.43-1.8,28.71-3.07,19.67-5.84,33-19.38,48.6-37.67,35-39.87,60.82-60.07,119-61.87,71.8-2.22,127.73,67.61,124.88,69.66-.52.37-3.67-.88-15.84-8.55A140,140,0,0,0,389.45,258C378.94,254.33,366.87,250.09,350.22,249.84Z"/></svg>